<mxfile host="app.diagrams.net" modified="2023-12-20T07:10:12.976Z" agent="Mozilla/5.0 (Windows NT 10.0; Win64; x64) AppleWebKit/537.36 (KHTML, like Gecko) Chrome/120.0.0.0 Safari/537.36 Edg/120.0.0.0" etag="uFzrhRWgJBdOVuUWYOs-" version="22.1.11" type="device">
  <diagram id="dW0NMJau9nA2Z_1wL6Y-" name="第 1 页">
    <mxGraphModel dx="1002" dy="569" grid="1" gridSize="10" guides="1" tooltips="1" connect="1" arrows="1" fold="1" page="1" pageScale="1" pageWidth="827" pageHeight="1169" math="0" shadow="0">
      <root>
        <mxCell id="0" />
        <mxCell id="1" parent="0" />
        <mxCell id="PgAax3qISN8i0Unztyhz-1" value="&lt;p style=&quot;margin:0px;margin-top:6px;text-align:center;&quot;&gt;&amp;lt;&amp;lt;component&amp;gt;&amp;gt;&lt;br style=&quot;background-color: rgb(255, 255, 255); border-color: var(--border-color);&quot;&gt;&lt;span style=&quot;background-color: rgb(255, 255, 255);&quot;&gt;&amp;lt;&amp;lt;subsystem&amp;gt;&amp;gt;&lt;/span&gt;&lt;/p&gt;&lt;p style=&quot;margin:0px;margin-top:6px;text-align:center;&quot;&gt;&lt;span style=&quot;background-color: rgb(255, 255, 255);&quot;&gt;&amp;nbsp;pharmacy&amp;nbsp;App&lt;/span&gt;&lt;br&gt;&lt;/p&gt;&lt;hr&gt;&lt;p style=&quot;margin:0px;margin-left:8px;&quot;&gt;&lt;br&gt;&lt;/p&gt;" style="align=left;overflow=fill;html=1;dropTarget=0;whiteSpace=wrap;" parent="1" vertex="1">
          <mxGeometry x="40" y="40" width="490" height="820" as="geometry" />
        </mxCell>
        <mxCell id="PgAax3qISN8i0Unztyhz-2" value="" style="shape=component;jettyWidth=8;jettyHeight=4;" parent="PgAax3qISN8i0Unztyhz-1" vertex="1">
          <mxGeometry x="1" width="20" height="20" relative="1" as="geometry">
            <mxPoint x="-24" y="4" as="offset" />
          </mxGeometry>
        </mxCell>
        <mxCell id="PgAax3qISN8i0Unztyhz-3" value="&amp;lt;&amp;lt;c&lt;span style=&quot;background-color: rgb(255, 255, 255); border-color: var(--border-color);&quot;&gt;omponent&amp;gt;&amp;gt;&lt;/span&gt;&lt;br style=&quot;background-color: rgb(255, 255, 255);&quot;&gt;&lt;span style=&quot;background-color: rgb(255, 255, 255);&quot;&gt;&amp;lt;&amp;lt;service&amp;gt;&amp;gt;&lt;/span&gt;&lt;br style=&quot;background-color: rgb(255, 255, 255);&quot;&gt;&lt;span style=&quot;background-color: rgb(255, 255, 255);&quot;&gt;Patient Information&amp;nbsp;&lt;/span&gt;&lt;br style=&quot;background-color: rgb(255, 255, 255); border-color: var(--border-color);&quot;&gt;&lt;span style=&quot;background-color: rgb(255, 255, 255);&quot;&gt;Manage&lt;/span&gt;" style="html=1;dropTarget=0;whiteSpace=wrap;" parent="1" vertex="1">
          <mxGeometry x="180" y="170" width="180" height="90" as="geometry" />
        </mxCell>
        <mxCell id="PgAax3qISN8i0Unztyhz-4" value="" style="shape=module;jettyWidth=8;jettyHeight=4;" parent="PgAax3qISN8i0Unztyhz-3" vertex="1">
          <mxGeometry x="1" width="20" height="20" relative="1" as="geometry">
            <mxPoint x="-27" y="7" as="offset" />
          </mxGeometry>
        </mxCell>
        <mxCell id="PgAax3qISN8i0Unztyhz-7" value="&amp;lt;&amp;lt;c&lt;span style=&quot;background-color: rgb(255, 255, 255); border-color: var(--border-color);&quot;&gt;omponent&amp;gt;&amp;gt;&lt;/span&gt;&lt;br style=&quot;background-color: rgb(255, 255, 255);&quot;&gt;&lt;span style=&quot;background-color: rgb(255, 255, 255);&quot;&gt;&amp;lt;&amp;lt;service&amp;gt;&amp;gt;&lt;/span&gt;&lt;br style=&quot;background-color: rgb(255, 255, 255);&quot;&gt;&lt;span style=&quot;background-color: rgb(255, 255, 255);&quot;&gt;Medical History and Records&lt;/span&gt;&lt;br style=&quot;background-color: rgb(255, 255, 255); border-color: var(--border-color);&quot;&gt;&lt;span style=&quot;background-color: rgb(255, 255, 255);&quot;&gt;Manage&amp;nbsp;&lt;/span&gt;" style="html=1;dropTarget=0;whiteSpace=wrap;" parent="1" vertex="1">
          <mxGeometry x="180" y="320" width="180" height="90" as="geometry" />
        </mxCell>
        <mxCell id="PgAax3qISN8i0Unztyhz-8" value="" style="shape=module;jettyWidth=8;jettyHeight=4;" parent="PgAax3qISN8i0Unztyhz-7" vertex="1">
          <mxGeometry x="1" width="20" height="20" relative="1" as="geometry">
            <mxPoint x="-27" y="7" as="offset" />
          </mxGeometry>
        </mxCell>
        <mxCell id="PgAax3qISN8i0Unztyhz-13" value="&amp;lt;&amp;lt;c&lt;span style=&quot;background-color: rgb(255, 255, 255); border-color: var(--border-color);&quot;&gt;omponent&amp;gt;&amp;gt;&lt;/span&gt;&lt;br style=&quot;background-color: rgb(255, 255, 255);&quot;&gt;&lt;span style=&quot;background-color: rgb(255, 255, 255);&quot;&gt;&amp;lt;&amp;lt;service&amp;gt;&amp;gt;&lt;/span&gt;&lt;br style=&quot;background-color: rgb(255, 255, 255);&quot;&gt;&lt;span style=&quot;background-color: rgb(255, 255, 255);&quot;&gt;Inventory&amp;nbsp; Manage&lt;/span&gt;" style="html=1;dropTarget=0;whiteSpace=wrap;" parent="1" vertex="1">
          <mxGeometry x="180" y="480" width="180" height="90" as="geometry" />
        </mxCell>
        <mxCell id="PgAax3qISN8i0Unztyhz-14" value="" style="shape=module;jettyWidth=8;jettyHeight=4;" parent="PgAax3qISN8i0Unztyhz-13" vertex="1">
          <mxGeometry x="1" width="20" height="20" relative="1" as="geometry">
            <mxPoint x="-27" y="7" as="offset" />
          </mxGeometry>
        </mxCell>
        <mxCell id="PgAax3qISN8i0Unztyhz-15" value="&amp;lt;&amp;lt;c&lt;span style=&quot;background-color: rgb(255, 255, 255); border-color: var(--border-color);&quot;&gt;omponent&amp;gt;&amp;gt;&lt;/span&gt;&lt;br style=&quot;background-color: rgb(255, 255, 255);&quot;&gt;&lt;span style=&quot;background-color: rgb(255, 255, 255);&quot;&gt;&amp;lt;&amp;lt;service&amp;gt;&amp;gt;&lt;/span&gt;&lt;br style=&quot;background-color: rgb(255, 255, 255);&quot;&gt;&lt;span style=&quot;background-color: rgb(255, 255, 255);&quot;&gt;Prescription Verification&lt;/span&gt;&lt;br style=&quot;background-color: rgb(255, 255, 255); border-color: var(--border-color);&quot;&gt;&lt;span style=&quot;background-color: rgb(255, 255, 255);&quot;&gt;Manage&lt;/span&gt;" style="html=1;dropTarget=0;whiteSpace=wrap;" parent="1" vertex="1">
          <mxGeometry x="180" y="610" width="180" height="90" as="geometry" />
        </mxCell>
        <mxCell id="PgAax3qISN8i0Unztyhz-16" value="" style="shape=module;jettyWidth=8;jettyHeight=4;" parent="PgAax3qISN8i0Unztyhz-15" vertex="1">
          <mxGeometry x="1" width="20" height="20" relative="1" as="geometry">
            <mxPoint x="-27" y="7" as="offset" />
          </mxGeometry>
        </mxCell>
        <mxCell id="PgAax3qISN8i0Unztyhz-17" value="&amp;lt;&amp;lt;c&lt;span style=&quot;background-color: rgb(255, 255, 255); border-color: var(--border-color);&quot;&gt;omponent&amp;gt;&amp;gt;&lt;/span&gt;&lt;br style=&quot;background-color: rgb(255, 255, 255);&quot;&gt;&lt;span style=&quot;background-color: rgb(255, 255, 255);&quot;&gt;&amp;lt;&amp;lt;service&amp;gt;&amp;gt;&lt;/span&gt;&lt;br style=&quot;background-color: rgb(255, 255, 255);&quot;&gt;&lt;span style=&quot;background-color: rgb(255, 255, 255);&quot;&gt;Medication dispensing&amp;nbsp; Manage&amp;nbsp;&lt;/span&gt;" style="html=1;dropTarget=0;whiteSpace=wrap;" parent="1" vertex="1">
          <mxGeometry x="180" y="740" width="180" height="90" as="geometry" />
        </mxCell>
        <mxCell id="PgAax3qISN8i0Unztyhz-18" value="" style="shape=module;jettyWidth=8;jettyHeight=4;" parent="PgAax3qISN8i0Unztyhz-17" vertex="1">
          <mxGeometry x="1" width="20" height="20" relative="1" as="geometry">
            <mxPoint x="-27" y="7" as="offset" />
          </mxGeometry>
        </mxCell>
        <mxCell id="PgAax3qISN8i0Unztyhz-19" value="&lt;p style=&quot;margin:0px;margin-top:6px;text-align:center;&quot;&gt;&amp;lt;&amp;lt;component&amp;gt;&amp;gt;&lt;br style=&quot;background-color: rgb(255, 255, 255); border-color: var(--border-color);&quot;&gt;&lt;span style=&quot;background-color: rgb(255, 255, 255);&quot;&gt;&amp;lt;&amp;lt;subsystem&amp;gt;&amp;gt;&lt;/span&gt;&lt;/p&gt;&lt;p style=&quot;margin:0px;margin-top:6px;text-align:center;&quot;&gt;&lt;span style=&quot;background-color: rgb(255, 255, 255);&quot;&gt;&amp;nbsp;&lt;/span&gt;&lt;br&gt;&lt;/p&gt;&lt;span style=&quot;white-space: pre;&quot;&gt;&#x9;&lt;/span&gt;&lt;span style=&quot;white-space: pre;&quot;&gt;&#x9;&lt;/span&gt;&lt;span style=&quot;white-space: pre;&quot;&gt;&#x9;&lt;/span&gt;&lt;span style=&quot;white-space: pre;&quot;&gt;&#x9;&lt;/span&gt;&lt;span style=&quot;white-space: pre;&quot;&gt;&#x9;&lt;/span&gt;&lt;span style=&quot;white-space: pre;&quot;&gt;&#x9;&lt;/span&gt;&lt;span style=&quot;white-space: pre;&quot;&gt;&#x9;&lt;/span&gt;&amp;nbsp; &amp;nbsp;&lt;span style=&quot;white-space: pre;&quot;&gt;&#x9;&lt;/span&gt;&lt;span style=&quot;white-space: pre;&quot;&gt;&#x9;&lt;/span&gt;&lt;span style=&quot;white-space: pre;&quot;&gt;&#x9;&lt;/span&gt;&lt;span style=&quot;white-space: pre;&quot;&gt;&#x9;&lt;/span&gt;&lt;span style=&quot;white-space: pre;&quot;&gt;&#x9;&lt;/span&gt;&lt;span style=&quot;white-space: pre;&quot;&gt;&#x9;&lt;/span&gt; HealthGuardian SaaS&lt;hr&gt;&lt;p style=&quot;margin:0px;margin-left:8px;&quot;&gt;&lt;br&gt;&lt;/p&gt;" style="align=left;overflow=fill;html=1;dropTarget=0;whiteSpace=wrap;" parent="1" vertex="1">
          <mxGeometry x="820" y="40" width="810" height="820" as="geometry" />
        </mxCell>
        <mxCell id="PgAax3qISN8i0Unztyhz-20" value="" style="shape=component;jettyWidth=8;jettyHeight=4;" parent="PgAax3qISN8i0Unztyhz-19" vertex="1">
          <mxGeometry x="1" width="20" height="20" relative="1" as="geometry">
            <mxPoint x="-24" y="4" as="offset" />
          </mxGeometry>
        </mxCell>
        <mxCell id="PgAax3qISN8i0Unztyhz-22" value="&amp;lt;&amp;lt;c&lt;span style=&quot;background-color: rgb(255, 255, 255); border-color: var(--border-color);&quot;&gt;omponent&amp;gt;&amp;gt;&lt;/span&gt;&lt;br style=&quot;background-color: rgb(255, 255, 255);&quot;&gt;&lt;span style=&quot;background-color: rgb(255, 255, 255);&quot;&gt;&amp;lt;&amp;lt;service&amp;gt;&amp;gt;&lt;/span&gt;&lt;br style=&quot;background-color: rgb(255, 255, 255);&quot;&gt;&lt;span style=&quot;background-color: rgb(255, 255, 255);&quot;&gt;Patient Data Manage&lt;/span&gt;" style="html=1;dropTarget=0;whiteSpace=wrap;" parent="1" vertex="1">
          <mxGeometry x="965" y="170" width="180" height="90" as="geometry" />
        </mxCell>
        <mxCell id="PgAax3qISN8i0Unztyhz-23" value="" style="shape=module;jettyWidth=8;jettyHeight=4;" parent="PgAax3qISN8i0Unztyhz-22" vertex="1">
          <mxGeometry x="1" width="20" height="20" relative="1" as="geometry">
            <mxPoint x="-27" y="7" as="offset" />
          </mxGeometry>
        </mxCell>
        <mxCell id="PgAax3qISN8i0Unztyhz-24" value="&amp;lt;&amp;lt;c&lt;span style=&quot;background-color: rgb(255, 255, 255); border-color: var(--border-color);&quot;&gt;omponent&amp;gt;&amp;gt;&lt;/span&gt;&lt;br style=&quot;background-color: rgb(255, 255, 255);&quot;&gt;&lt;span style=&quot;background-color: rgb(255, 255, 255);&quot;&gt;&amp;lt;&amp;lt;service&amp;gt;&amp;gt;&lt;/span&gt;&lt;br style=&quot;background-color: rgb(255, 255, 255);&quot;&gt;&lt;span style=&quot;background-color: rgb(255, 255, 255);&quot;&gt;Records Data Manage&lt;/span&gt;" style="html=1;dropTarget=0;whiteSpace=wrap;" parent="1" vertex="1">
          <mxGeometry x="965" y="320" width="180" height="90" as="geometry" />
        </mxCell>
        <mxCell id="PgAax3qISN8i0Unztyhz-25" value="" style="shape=module;jettyWidth=8;jettyHeight=4;" parent="PgAax3qISN8i0Unztyhz-24" vertex="1">
          <mxGeometry x="1" width="20" height="20" relative="1" as="geometry">
            <mxPoint x="-27" y="7" as="offset" />
          </mxGeometry>
        </mxCell>
        <mxCell id="PgAax3qISN8i0Unztyhz-26" value="&amp;lt;&amp;lt;c&lt;span style=&quot;background-color: rgb(255, 255, 255); border-color: var(--border-color);&quot;&gt;omponent&amp;gt;&amp;gt;&lt;/span&gt;&lt;br style=&quot;background-color: rgb(255, 255, 255);&quot;&gt;&lt;span style=&quot;background-color: rgb(255, 255, 255);&quot;&gt;&amp;lt;&amp;lt;service&amp;gt;&amp;gt;&lt;/span&gt;&lt;br style=&quot;background-color: rgb(255, 255, 255);&quot;&gt;&lt;span style=&quot;background-color: rgb(255, 255, 255);&quot;&gt;Appointment&amp;nbsp;Data Manage&lt;/span&gt;" style="html=1;dropTarget=0;whiteSpace=wrap;" parent="1" vertex="1">
          <mxGeometry x="965" y="480" width="180" height="90" as="geometry" />
        </mxCell>
        <mxCell id="PgAax3qISN8i0Unztyhz-27" value="" style="shape=module;jettyWidth=8;jettyHeight=4;" parent="PgAax3qISN8i0Unztyhz-26" vertex="1">
          <mxGeometry x="1" width="20" height="20" relative="1" as="geometry">
            <mxPoint x="-27" y="7" as="offset" />
          </mxGeometry>
        </mxCell>
        <mxCell id="PgAax3qISN8i0Unztyhz-28" value="&amp;lt;&amp;lt;c&lt;span style=&quot;background-color: rgb(255, 255, 255); border-color: var(--border-color);&quot;&gt;omponent&amp;gt;&amp;gt;&lt;/span&gt;&lt;br style=&quot;background-color: rgb(255, 255, 255);&quot;&gt;&lt;span style=&quot;background-color: rgb(255, 255, 255);&quot;&gt;&amp;lt;&amp;lt;service&amp;gt;&amp;gt;&lt;/span&gt;&lt;br style=&quot;background-color: rgb(255, 255, 255);&quot;&gt;&lt;span style=&quot;background-color: rgb(255, 255, 255);&quot;&gt;Test Data Manage&amp;nbsp;&lt;/span&gt;" style="html=1;dropTarget=0;whiteSpace=wrap;" parent="1" vertex="1">
          <mxGeometry x="965" y="610" width="180" height="90" as="geometry" />
        </mxCell>
        <mxCell id="PgAax3qISN8i0Unztyhz-29" value="" style="shape=module;jettyWidth=8;jettyHeight=4;" parent="PgAax3qISN8i0Unztyhz-28" vertex="1">
          <mxGeometry x="1" width="20" height="20" relative="1" as="geometry">
            <mxPoint x="-27" y="7" as="offset" />
          </mxGeometry>
        </mxCell>
        <mxCell id="PgAax3qISN8i0Unztyhz-30" value="&amp;lt;&amp;lt;c&lt;span style=&quot;background-color: rgb(255, 255, 255); border-color: var(--border-color);&quot;&gt;omponent&amp;gt;&amp;gt;&lt;/span&gt;&lt;br style=&quot;background-color: rgb(255, 255, 255);&quot;&gt;&lt;span style=&quot;background-color: rgb(255, 255, 255);&quot;&gt;&amp;lt;&amp;lt;service&amp;gt;&amp;gt;&lt;/span&gt;&lt;br style=&quot;background-color: rgb(255, 255, 255);&quot;&gt;&lt;span style=&quot;background-color: rgb(255, 255, 255);&quot;&gt;Communicate&amp;nbsp;Data Manage&lt;/span&gt;" style="html=1;dropTarget=0;whiteSpace=wrap;" parent="1" vertex="1">
          <mxGeometry x="965" y="740" width="180" height="90" as="geometry" />
        </mxCell>
        <mxCell id="PgAax3qISN8i0Unztyhz-31" value="" style="shape=module;jettyWidth=8;jettyHeight=4;" parent="PgAax3qISN8i0Unztyhz-30" vertex="1">
          <mxGeometry x="1" width="20" height="20" relative="1" as="geometry">
            <mxPoint x="-27" y="7" as="offset" />
          </mxGeometry>
        </mxCell>
        <mxCell id="PgAax3qISN8i0Unztyhz-32" value="&amp;lt;&amp;lt;c&lt;span style=&quot;background-color: rgb(255, 255, 255); border-color: var(--border-color);&quot;&gt;omponent&amp;gt;&amp;gt;&lt;/span&gt;&lt;br style=&quot;background-color: rgb(255, 255, 255);&quot;&gt;&lt;span style=&quot;background-color: rgb(255, 255, 255);&quot;&gt;&amp;lt;&amp;lt;service&amp;gt;&amp;gt;&lt;/span&gt;&lt;br style=&quot;background-color: rgb(255, 255, 255);&quot;&gt;&lt;span style=&quot;background-color: rgb(255, 255, 255);&quot;&gt;Records Data Manage&lt;/span&gt;" style="html=1;dropTarget=0;whiteSpace=wrap;" parent="1" vertex="1">
          <mxGeometry x="1340" y="330" width="180" height="90" as="geometry" />
        </mxCell>
        <mxCell id="PgAax3qISN8i0Unztyhz-33" value="" style="shape=module;jettyWidth=8;jettyHeight=4;" parent="PgAax3qISN8i0Unztyhz-32" vertex="1">
          <mxGeometry x="1" width="20" height="20" relative="1" as="geometry">
            <mxPoint x="-27" y="7" as="offset" />
          </mxGeometry>
        </mxCell>
        <mxCell id="PgAax3qISN8i0Unztyhz-34" value="" style="rounded=0;orthogonalLoop=1;jettySize=auto;html=1;endArrow=halfCircle;endFill=0;endSize=6;strokeWidth=1;sketch=0;exitX=1;exitY=0.5;exitDx=0;exitDy=0;" parent="1" source="PgAax3qISN8i0Unztyhz-24" edge="1">
          <mxGeometry relative="1" as="geometry">
            <mxPoint x="1266" y="375" as="sourcePoint" />
            <mxPoint x="1225" y="390" as="targetPoint" />
          </mxGeometry>
        </mxCell>
        <mxCell id="PgAax3qISN8i0Unztyhz-37" value="Search" style="edgeLabel;html=1;align=center;verticalAlign=middle;resizable=0;points=[];" parent="PgAax3qISN8i0Unztyhz-34" vertex="1" connectable="0">
          <mxGeometry x="-0.2782" y="3" relative="1" as="geometry">
            <mxPoint x="-1" as="offset" />
          </mxGeometry>
        </mxCell>
        <mxCell id="PgAax3qISN8i0Unztyhz-35" value="" style="rounded=0;orthogonalLoop=1;jettySize=auto;html=1;endArrow=oval;endFill=0;sketch=0;sourcePerimeterSpacing=0;targetPerimeterSpacing=0;endSize=10;exitX=0;exitY=0.5;exitDx=0;exitDy=0;" parent="1" source="PgAax3qISN8i0Unztyhz-32" edge="1">
          <mxGeometry relative="1" as="geometry">
            <mxPoint x="1130" y="315" as="sourcePoint" />
            <mxPoint x="1230" y="390" as="targetPoint" />
          </mxGeometry>
        </mxCell>
        <mxCell id="PgAax3qISN8i0Unztyhz-36" value="" style="ellipse;whiteSpace=wrap;html=1;align=center;aspect=fixed;fillColor=none;strokeColor=none;resizable=0;perimeter=centerPerimeter;rotatable=0;allowArrows=0;points=[];outlineConnect=1;" parent="1" vertex="1">
          <mxGeometry x="1220" y="400" width="10" height="10" as="geometry" />
        </mxCell>
        <mxCell id="PgAax3qISN8i0Unztyhz-38" value="&amp;lt;&amp;lt;Interface&amp;gt;&amp;gt;&lt;br style=&quot;border-color: var(--border-color); background-color: rgb(255, 255, 255);&quot;&gt;&lt;span style=&quot;background-color: rgb(255, 255, 255);&quot;&gt;Search&lt;/span&gt;&lt;br style=&quot;border-color: var(--border-color); background-color: rgb(255, 255, 255);&quot;&gt;" style="html=1;dropTarget=0;whiteSpace=wrap;" parent="1" vertex="1">
          <mxGeometry x="590" y="170" width="180" height="90" as="geometry" />
        </mxCell>
        <mxCell id="PgAax3qISN8i0Unztyhz-39" value="" style="shape=module;jettyWidth=8;jettyHeight=4;" parent="PgAax3qISN8i0Unztyhz-38" vertex="1">
          <mxGeometry x="1" width="20" height="20" relative="1" as="geometry">
            <mxPoint x="-27" y="7" as="offset" />
          </mxGeometry>
        </mxCell>
        <mxCell id="PgAax3qISN8i0Unztyhz-40" value="&amp;lt;&amp;lt;Interface&amp;gt;&amp;gt;&lt;br style=&quot;border-color: var(--border-color); background-color: rgb(255, 255, 255);&quot;&gt;Handel" style="html=1;dropTarget=0;whiteSpace=wrap;" parent="1" vertex="1">
          <mxGeometry x="590" y="380" width="180" height="90" as="geometry" />
        </mxCell>
        <mxCell id="PgAax3qISN8i0Unztyhz-41" value="" style="shape=module;jettyWidth=8;jettyHeight=4;" parent="PgAax3qISN8i0Unztyhz-40" vertex="1">
          <mxGeometry x="1" width="20" height="20" relative="1" as="geometry">
            <mxPoint x="-27" y="7" as="offset" />
          </mxGeometry>
        </mxCell>
        <mxCell id="PgAax3qISN8i0Unztyhz-42" value="&amp;lt;&amp;lt;Interface&amp;gt;&amp;gt;&lt;br style=&quot;border-color: var(--border-color); background-color: rgb(255, 255, 255);&quot;&gt;Prescription" style="html=1;dropTarget=0;whiteSpace=wrap;" parent="1" vertex="1">
          <mxGeometry x="590" y="610" width="180" height="90" as="geometry" />
        </mxCell>
        <mxCell id="PgAax3qISN8i0Unztyhz-43" value="" style="shape=module;jettyWidth=8;jettyHeight=4;" parent="PgAax3qISN8i0Unztyhz-42" vertex="1">
          <mxGeometry x="1" width="20" height="20" relative="1" as="geometry">
            <mxPoint x="-27" y="7" as="offset" />
          </mxGeometry>
        </mxCell>
        <mxCell id="PgAax3qISN8i0Unztyhz-45" value="" style="rounded=0;whiteSpace=wrap;html=1;" parent="1" vertex="1">
          <mxGeometry x="520" y="177.5" width="20" height="75" as="geometry" />
        </mxCell>
        <mxCell id="PgAax3qISN8i0Unztyhz-46" value="" style="rounded=0;whiteSpace=wrap;html=1;" parent="1" vertex="1">
          <mxGeometry x="520" y="320" width="20" height="75" as="geometry" />
        </mxCell>
        <mxCell id="PgAax3qISN8i0Unztyhz-47" value="" style="rounded=0;whiteSpace=wrap;html=1;" parent="1" vertex="1">
          <mxGeometry x="520" y="480" width="20" height="75" as="geometry" />
        </mxCell>
        <mxCell id="PgAax3qISN8i0Unztyhz-48" value="" style="rounded=0;whiteSpace=wrap;html=1;" parent="1" vertex="1">
          <mxGeometry x="520" y="625" width="20" height="75" as="geometry" />
        </mxCell>
        <mxCell id="PgAax3qISN8i0Unztyhz-49" value="" style="rounded=0;whiteSpace=wrap;html=1;" parent="1" vertex="1">
          <mxGeometry x="520" y="740" width="20" height="75" as="geometry" />
        </mxCell>
        <mxCell id="PgAax3qISN8i0Unztyhz-50" value="" style="rounded=0;whiteSpace=wrap;html=1;" parent="1" vertex="1">
          <mxGeometry x="807" y="177.5" width="20" height="75" as="geometry" />
        </mxCell>
        <mxCell id="PgAax3qISN8i0Unztyhz-51" value="" style="rounded=0;whiteSpace=wrap;html=1;" parent="1" vertex="1">
          <mxGeometry x="807" y="325" width="20" height="75" as="geometry" />
        </mxCell>
        <mxCell id="PgAax3qISN8i0Unztyhz-52" value="" style="rounded=0;whiteSpace=wrap;html=1;" parent="1" vertex="1">
          <mxGeometry x="810" y="487.5" width="20" height="75" as="geometry" />
        </mxCell>
        <mxCell id="PgAax3qISN8i0Unztyhz-53" value="" style="rounded=0;whiteSpace=wrap;html=1;" parent="1" vertex="1">
          <mxGeometry x="810" y="617.5" width="20" height="75" as="geometry" />
        </mxCell>
        <mxCell id="PgAax3qISN8i0Unztyhz-54" value="" style="rounded=0;whiteSpace=wrap;html=1;" parent="1" vertex="1">
          <mxGeometry x="810" y="747.5" width="20" height="75" as="geometry" />
        </mxCell>
        <mxCell id="PgAax3qISN8i0Unztyhz-55" value="" style="rounded=0;orthogonalLoop=1;jettySize=auto;html=1;endArrow=halfCircle;endFill=0;endSize=6;strokeWidth=1;sketch=0;exitX=0;exitY=0.5;exitDx=0;exitDy=0;" parent="1" source="PgAax3qISN8i0Unztyhz-45" target="PgAax3qISN8i0Unztyhz-57" edge="1">
          <mxGeometry relative="1" as="geometry">
            <mxPoint x="760" y="495" as="sourcePoint" />
          </mxGeometry>
        </mxCell>
        <mxCell id="PgAax3qISN8i0Unztyhz-56" value="" style="rounded=0;orthogonalLoop=1;jettySize=auto;html=1;endArrow=oval;endFill=0;sketch=0;sourcePerimeterSpacing=0;targetPerimeterSpacing=0;endSize=10;exitX=1;exitY=0.5;exitDx=0;exitDy=0;" parent="1" source="PgAax3qISN8i0Unztyhz-3" target="PgAax3qISN8i0Unztyhz-57" edge="1">
          <mxGeometry relative="1" as="geometry">
            <mxPoint x="720" y="495" as="sourcePoint" />
          </mxGeometry>
        </mxCell>
        <mxCell id="PgAax3qISN8i0Unztyhz-57" value="" style="ellipse;whiteSpace=wrap;html=1;align=center;aspect=fixed;fillColor=none;strokeColor=none;resizable=0;perimeter=centerPerimeter;rotatable=0;allowArrows=0;points=[];outlineConnect=1;" parent="1" vertex="1">
          <mxGeometry x="440" y="210" width="10" height="10" as="geometry" />
        </mxCell>
        <mxCell id="PgAax3qISN8i0Unztyhz-58" value="" style="rounded=0;orthogonalLoop=1;jettySize=auto;html=1;endArrow=halfCircle;endFill=0;endSize=6;strokeWidth=1;sketch=0;exitX=0;exitY=0.5;exitDx=0;exitDy=0;" parent="1" source="PgAax3qISN8i0Unztyhz-46" target="PgAax3qISN8i0Unztyhz-60" edge="1">
          <mxGeometry relative="1" as="geometry">
            <mxPoint x="760" y="495" as="sourcePoint" />
          </mxGeometry>
        </mxCell>
        <mxCell id="PgAax3qISN8i0Unztyhz-59" value="" style="rounded=0;orthogonalLoop=1;jettySize=auto;html=1;endArrow=oval;endFill=0;sketch=0;sourcePerimeterSpacing=0;targetPerimeterSpacing=0;endSize=10;exitX=1;exitY=0.5;exitDx=0;exitDy=0;" parent="1" source="PgAax3qISN8i0Unztyhz-7" target="PgAax3qISN8i0Unztyhz-60" edge="1">
          <mxGeometry relative="1" as="geometry">
            <mxPoint x="720" y="495" as="sourcePoint" />
          </mxGeometry>
        </mxCell>
        <mxCell id="PgAax3qISN8i0Unztyhz-60" value="" style="ellipse;whiteSpace=wrap;html=1;align=center;aspect=fixed;fillColor=none;strokeColor=none;resizable=0;perimeter=centerPerimeter;rotatable=0;allowArrows=0;points=[];outlineConnect=1;" parent="1" vertex="1">
          <mxGeometry x="440" y="352.5" width="10" height="10" as="geometry" />
        </mxCell>
        <mxCell id="PgAax3qISN8i0Unztyhz-61" value="" style="rounded=0;orthogonalLoop=1;jettySize=auto;html=1;endArrow=halfCircle;endFill=0;endSize=6;strokeWidth=1;sketch=0;exitX=0;exitY=0.5;exitDx=0;exitDy=0;" parent="1" source="PgAax3qISN8i0Unztyhz-47" target="PgAax3qISN8i0Unztyhz-63" edge="1">
          <mxGeometry relative="1" as="geometry">
            <mxPoint x="760" y="495" as="sourcePoint" />
          </mxGeometry>
        </mxCell>
        <mxCell id="PgAax3qISN8i0Unztyhz-62" value="" style="rounded=0;orthogonalLoop=1;jettySize=auto;html=1;endArrow=oval;endFill=0;sketch=0;sourcePerimeterSpacing=0;targetPerimeterSpacing=0;endSize=10;exitX=1;exitY=0.5;exitDx=0;exitDy=0;" parent="1" source="PgAax3qISN8i0Unztyhz-13" target="PgAax3qISN8i0Unztyhz-63" edge="1">
          <mxGeometry relative="1" as="geometry">
            <mxPoint x="720" y="495" as="sourcePoint" />
          </mxGeometry>
        </mxCell>
        <mxCell id="PgAax3qISN8i0Unztyhz-63" value="" style="ellipse;whiteSpace=wrap;html=1;align=center;aspect=fixed;fillColor=none;strokeColor=none;resizable=0;perimeter=centerPerimeter;rotatable=0;allowArrows=0;points=[];outlineConnect=1;" parent="1" vertex="1">
          <mxGeometry x="430" y="512.5" width="10" height="10" as="geometry" />
        </mxCell>
        <mxCell id="PgAax3qISN8i0Unztyhz-64" value="" style="rounded=0;orthogonalLoop=1;jettySize=auto;html=1;endArrow=halfCircle;endFill=0;endSize=6;strokeWidth=1;sketch=0;exitX=0;exitY=0.5;exitDx=0;exitDy=0;" parent="1" source="PgAax3qISN8i0Unztyhz-48" target="PgAax3qISN8i0Unztyhz-66" edge="1">
          <mxGeometry relative="1" as="geometry">
            <mxPoint x="760" y="495" as="sourcePoint" />
          </mxGeometry>
        </mxCell>
        <mxCell id="PgAax3qISN8i0Unztyhz-65" value="" style="rounded=0;orthogonalLoop=1;jettySize=auto;html=1;endArrow=oval;endFill=0;sketch=0;sourcePerimeterSpacing=0;targetPerimeterSpacing=0;endSize=10;exitX=1;exitY=0.5;exitDx=0;exitDy=0;" parent="1" source="PgAax3qISN8i0Unztyhz-15" target="PgAax3qISN8i0Unztyhz-66" edge="1">
          <mxGeometry relative="1" as="geometry">
            <mxPoint x="720" y="495" as="sourcePoint" />
          </mxGeometry>
        </mxCell>
        <mxCell id="PgAax3qISN8i0Unztyhz-66" value="" style="ellipse;whiteSpace=wrap;html=1;align=center;aspect=fixed;fillColor=none;strokeColor=none;resizable=0;perimeter=centerPerimeter;rotatable=0;allowArrows=0;points=[];outlineConnect=1;" parent="1" vertex="1">
          <mxGeometry x="430" y="650" width="10" height="10" as="geometry" />
        </mxCell>
        <mxCell id="PgAax3qISN8i0Unztyhz-67" value="" style="rounded=0;orthogonalLoop=1;jettySize=auto;html=1;endArrow=halfCircle;endFill=0;endSize=6;strokeWidth=1;sketch=0;exitX=0;exitY=0.5;exitDx=0;exitDy=0;" parent="1" source="PgAax3qISN8i0Unztyhz-49" target="PgAax3qISN8i0Unztyhz-69" edge="1">
          <mxGeometry relative="1" as="geometry">
            <mxPoint x="760" y="495" as="sourcePoint" />
          </mxGeometry>
        </mxCell>
        <mxCell id="PgAax3qISN8i0Unztyhz-68" value="" style="rounded=0;orthogonalLoop=1;jettySize=auto;html=1;endArrow=oval;endFill=0;sketch=0;sourcePerimeterSpacing=0;targetPerimeterSpacing=0;endSize=10;exitX=1;exitY=0.5;exitDx=0;exitDy=0;" parent="1" source="PgAax3qISN8i0Unztyhz-17" target="PgAax3qISN8i0Unztyhz-69" edge="1">
          <mxGeometry relative="1" as="geometry">
            <mxPoint x="720" y="495" as="sourcePoint" />
          </mxGeometry>
        </mxCell>
        <mxCell id="PgAax3qISN8i0Unztyhz-69" value="" style="ellipse;whiteSpace=wrap;html=1;align=center;aspect=fixed;fillColor=none;strokeColor=none;resizable=0;perimeter=centerPerimeter;rotatable=0;allowArrows=0;points=[];outlineConnect=1;" parent="1" vertex="1">
          <mxGeometry x="430" y="772.5" width="10" height="10" as="geometry" />
        </mxCell>
        <mxCell id="PgAax3qISN8i0Unztyhz-70" value="" style="rounded=0;orthogonalLoop=1;jettySize=auto;html=1;endArrow=halfCircle;endFill=0;endSize=6;strokeWidth=1;sketch=0;exitX=0;exitY=0.5;exitDx=0;exitDy=0;" parent="1" source="PgAax3qISN8i0Unztyhz-22" target="PgAax3qISN8i0Unztyhz-72" edge="1">
          <mxGeometry relative="1" as="geometry">
            <mxPoint x="950" y="485" as="sourcePoint" />
          </mxGeometry>
        </mxCell>
        <mxCell id="PgAax3qISN8i0Unztyhz-71" value="" style="rounded=0;orthogonalLoop=1;jettySize=auto;html=1;endArrow=oval;endFill=0;sketch=0;sourcePerimeterSpacing=0;targetPerimeterSpacing=0;endSize=10;exitX=1;exitY=0.5;exitDx=0;exitDy=0;" parent="1" source="PgAax3qISN8i0Unztyhz-50" target="PgAax3qISN8i0Unztyhz-72" edge="1">
          <mxGeometry relative="1" as="geometry">
            <mxPoint x="910" y="485" as="sourcePoint" />
          </mxGeometry>
        </mxCell>
        <mxCell id="PgAax3qISN8i0Unztyhz-72" value="" style="ellipse;whiteSpace=wrap;html=1;align=center;aspect=fixed;fillColor=none;strokeColor=none;resizable=0;perimeter=centerPerimeter;rotatable=0;allowArrows=0;points=[];outlineConnect=1;" parent="1" vertex="1">
          <mxGeometry x="890" y="210" width="10" height="10" as="geometry" />
        </mxCell>
        <mxCell id="PgAax3qISN8i0Unztyhz-73" value="" style="rounded=0;orthogonalLoop=1;jettySize=auto;html=1;endArrow=halfCircle;endFill=0;endSize=6;strokeWidth=1;sketch=0;" parent="1" source="PgAax3qISN8i0Unztyhz-24" target="PgAax3qISN8i0Unztyhz-75" edge="1">
          <mxGeometry relative="1" as="geometry">
            <mxPoint x="950" y="485" as="sourcePoint" />
          </mxGeometry>
        </mxCell>
        <mxCell id="PgAax3qISN8i0Unztyhz-74" value="" style="rounded=0;orthogonalLoop=1;jettySize=auto;html=1;endArrow=oval;endFill=0;sketch=0;sourcePerimeterSpacing=0;targetPerimeterSpacing=0;endSize=10;exitX=1;exitY=0.5;exitDx=0;exitDy=0;" parent="1" source="PgAax3qISN8i0Unztyhz-51" target="PgAax3qISN8i0Unztyhz-75" edge="1">
          <mxGeometry relative="1" as="geometry">
            <mxPoint x="910" y="485" as="sourcePoint" />
          </mxGeometry>
        </mxCell>
        <mxCell id="PgAax3qISN8i0Unztyhz-75" value="" style="ellipse;whiteSpace=wrap;html=1;align=center;aspect=fixed;fillColor=none;strokeColor=none;resizable=0;perimeter=centerPerimeter;rotatable=0;allowArrows=0;points=[];outlineConnect=1;" parent="1" vertex="1">
          <mxGeometry x="900" y="370" width="10" height="10" as="geometry" />
        </mxCell>
        <mxCell id="PgAax3qISN8i0Unztyhz-76" value="" style="rounded=0;orthogonalLoop=1;jettySize=auto;html=1;endArrow=halfCircle;endFill=0;endSize=6;strokeWidth=1;sketch=0;exitX=0;exitY=0.5;exitDx=0;exitDy=0;" parent="1" source="PgAax3qISN8i0Unztyhz-26" target="PgAax3qISN8i0Unztyhz-78" edge="1">
          <mxGeometry relative="1" as="geometry">
            <mxPoint x="950" y="485" as="sourcePoint" />
          </mxGeometry>
        </mxCell>
        <mxCell id="PgAax3qISN8i0Unztyhz-77" value="" style="rounded=0;orthogonalLoop=1;jettySize=auto;html=1;endArrow=oval;endFill=0;sketch=0;sourcePerimeterSpacing=0;targetPerimeterSpacing=0;endSize=10;exitX=1;exitY=0.5;exitDx=0;exitDy=0;" parent="1" source="PgAax3qISN8i0Unztyhz-52" target="PgAax3qISN8i0Unztyhz-78" edge="1">
          <mxGeometry relative="1" as="geometry">
            <mxPoint x="910" y="485" as="sourcePoint" />
          </mxGeometry>
        </mxCell>
        <mxCell id="PgAax3qISN8i0Unztyhz-78" value="" style="ellipse;whiteSpace=wrap;html=1;align=center;aspect=fixed;fillColor=none;strokeColor=none;resizable=0;perimeter=centerPerimeter;rotatable=0;allowArrows=0;points=[];outlineConnect=1;" parent="1" vertex="1">
          <mxGeometry x="890" y="520" width="10" height="10" as="geometry" />
        </mxCell>
        <mxCell id="PgAax3qISN8i0Unztyhz-79" value="" style="rounded=0;orthogonalLoop=1;jettySize=auto;html=1;endArrow=halfCircle;endFill=0;endSize=6;strokeWidth=1;sketch=0;exitX=0;exitY=0.5;exitDx=0;exitDy=0;" parent="1" source="PgAax3qISN8i0Unztyhz-28" target="PgAax3qISN8i0Unztyhz-81" edge="1">
          <mxGeometry relative="1" as="geometry">
            <mxPoint x="950" y="485" as="sourcePoint" />
          </mxGeometry>
        </mxCell>
        <mxCell id="PgAax3qISN8i0Unztyhz-80" value="" style="rounded=0;orthogonalLoop=1;jettySize=auto;html=1;endArrow=oval;endFill=0;sketch=0;sourcePerimeterSpacing=0;targetPerimeterSpacing=0;endSize=10;exitX=1;exitY=0.5;exitDx=0;exitDy=0;" parent="1" source="PgAax3qISN8i0Unztyhz-53" target="PgAax3qISN8i0Unztyhz-81" edge="1">
          <mxGeometry relative="1" as="geometry">
            <mxPoint x="910" y="485" as="sourcePoint" />
          </mxGeometry>
        </mxCell>
        <mxCell id="PgAax3qISN8i0Unztyhz-81" value="" style="ellipse;whiteSpace=wrap;html=1;align=center;aspect=fixed;fillColor=none;strokeColor=none;resizable=0;perimeter=centerPerimeter;rotatable=0;allowArrows=0;points=[];outlineConnect=1;" parent="1" vertex="1">
          <mxGeometry x="890" y="650" width="10" height="10" as="geometry" />
        </mxCell>
        <mxCell id="PgAax3qISN8i0Unztyhz-82" value="" style="rounded=0;orthogonalLoop=1;jettySize=auto;html=1;endArrow=halfCircle;endFill=0;endSize=6;strokeWidth=1;sketch=0;exitX=0.014;exitY=0.414;exitDx=0;exitDy=0;exitPerimeter=0;" parent="1" source="PgAax3qISN8i0Unztyhz-30" target="PgAax3qISN8i0Unztyhz-84" edge="1">
          <mxGeometry relative="1" as="geometry">
            <mxPoint x="950" y="485" as="sourcePoint" />
          </mxGeometry>
        </mxCell>
        <mxCell id="PgAax3qISN8i0Unztyhz-83" value="" style="rounded=0;orthogonalLoop=1;jettySize=auto;html=1;endArrow=oval;endFill=0;sketch=0;sourcePerimeterSpacing=0;targetPerimeterSpacing=0;endSize=10;exitX=1;exitY=0.5;exitDx=0;exitDy=0;" parent="1" source="PgAax3qISN8i0Unztyhz-54" target="PgAax3qISN8i0Unztyhz-84" edge="1">
          <mxGeometry relative="1" as="geometry">
            <mxPoint x="910" y="485" as="sourcePoint" />
          </mxGeometry>
        </mxCell>
        <mxCell id="PgAax3qISN8i0Unztyhz-84" value="" style="ellipse;whiteSpace=wrap;html=1;align=center;aspect=fixed;fillColor=none;strokeColor=none;resizable=0;perimeter=centerPerimeter;rotatable=0;allowArrows=0;points=[];outlineConnect=1;" parent="1" vertex="1">
          <mxGeometry x="880" y="772.5" width="10" height="10" as="geometry" />
        </mxCell>
        <mxCell id="PgAax3qISN8i0Unztyhz-85" value="" style="endArrow=block;dashed=1;endFill=0;endSize=12;html=1;rounded=0;exitX=1;exitY=0.5;exitDx=0;exitDy=0;entryX=0;entryY=0.5;entryDx=0;entryDy=0;" parent="1" source="PgAax3qISN8i0Unztyhz-45" target="PgAax3qISN8i0Unztyhz-38" edge="1">
          <mxGeometry width="160" relative="1" as="geometry">
            <mxPoint x="570" y="290" as="sourcePoint" />
            <mxPoint x="730" y="290" as="targetPoint" />
          </mxGeometry>
        </mxCell>
        <mxCell id="PgAax3qISN8i0Unztyhz-86" value="" style="endArrow=block;dashed=1;endFill=0;endSize=12;html=1;rounded=0;exitX=1;exitY=0.5;exitDx=0;exitDy=0;entryX=0;entryY=0.5;entryDx=0;entryDy=0;" parent="1" source="PgAax3qISN8i0Unztyhz-46" target="PgAax3qISN8i0Unztyhz-40" edge="1">
          <mxGeometry width="160" relative="1" as="geometry">
            <mxPoint x="590" y="480" as="sourcePoint" />
            <mxPoint x="750" y="480" as="targetPoint" />
          </mxGeometry>
        </mxCell>
        <mxCell id="PgAax3qISN8i0Unztyhz-87" value="" style="endArrow=block;dashed=1;endFill=0;endSize=12;html=1;rounded=0;exitX=1;exitY=0.5;exitDx=0;exitDy=0;entryX=0;entryY=0.5;entryDx=0;entryDy=0;" parent="1" source="PgAax3qISN8i0Unztyhz-47" target="PgAax3qISN8i0Unztyhz-42" edge="1">
          <mxGeometry width="160" relative="1" as="geometry">
            <mxPoint x="590" y="480" as="sourcePoint" />
            <mxPoint x="750" y="480" as="targetPoint" />
          </mxGeometry>
        </mxCell>
        <mxCell id="PgAax3qISN8i0Unztyhz-88" value="" style="endArrow=block;dashed=1;endFill=0;endSize=12;html=1;rounded=0;exitX=1;exitY=0.5;exitDx=0;exitDy=0;entryX=0;entryY=0.75;entryDx=0;entryDy=0;" parent="1" source="PgAax3qISN8i0Unztyhz-48" target="PgAax3qISN8i0Unztyhz-40" edge="1">
          <mxGeometry width="160" relative="1" as="geometry">
            <mxPoint x="590" y="480" as="sourcePoint" />
            <mxPoint x="750" y="480" as="targetPoint" />
          </mxGeometry>
        </mxCell>
        <mxCell id="PgAax3qISN8i0Unztyhz-89" value="" style="endArrow=block;dashed=1;endFill=0;endSize=12;html=1;rounded=0;exitX=1;exitY=0.5;exitDx=0;exitDy=0;entryX=0.109;entryY=1.011;entryDx=0;entryDy=0;entryPerimeter=0;" parent="1" source="PgAax3qISN8i0Unztyhz-49" target="PgAax3qISN8i0Unztyhz-40" edge="1">
          <mxGeometry width="160" relative="1" as="geometry">
            <mxPoint x="590" y="480" as="sourcePoint" />
            <mxPoint x="750" y="480" as="targetPoint" />
          </mxGeometry>
        </mxCell>
        <mxCell id="PgAax3qISN8i0Unztyhz-90" value="Use" style="endArrow=open;endSize=12;dashed=1;html=1;rounded=0;exitX=1;exitY=0.5;exitDx=0;exitDy=0;entryX=0;entryY=0.5;entryDx=0;entryDy=0;" parent="1" source="PgAax3qISN8i0Unztyhz-38" target="PgAax3qISN8i0Unztyhz-50" edge="1">
          <mxGeometry width="160" relative="1" as="geometry">
            <mxPoint x="590" y="480" as="sourcePoint" />
            <mxPoint x="750" y="480" as="targetPoint" />
          </mxGeometry>
        </mxCell>
        <mxCell id="PgAax3qISN8i0Unztyhz-91" value="Use" style="endArrow=open;endSize=12;dashed=1;html=1;rounded=0;exitX=1;exitY=0.5;exitDx=0;exitDy=0;entryX=0;entryY=0.5;entryDx=0;entryDy=0;" parent="1" source="PgAax3qISN8i0Unztyhz-40" target="PgAax3qISN8i0Unztyhz-51" edge="1">
          <mxGeometry width="160" relative="1" as="geometry">
            <mxPoint x="590" y="480" as="sourcePoint" />
            <mxPoint x="750" y="480" as="targetPoint" />
          </mxGeometry>
        </mxCell>
        <mxCell id="PgAax3qISN8i0Unztyhz-92" value="Use" style="endArrow=open;endSize=12;dashed=1;html=1;rounded=0;exitX=1;exitY=0.75;exitDx=0;exitDy=0;entryX=0;entryY=0.5;entryDx=0;entryDy=0;" parent="1" source="PgAax3qISN8i0Unztyhz-40" target="PgAax3qISN8i0Unztyhz-53" edge="1">
          <mxGeometry width="160" relative="1" as="geometry">
            <mxPoint x="590" y="480" as="sourcePoint" />
            <mxPoint x="750" y="480" as="targetPoint" />
          </mxGeometry>
        </mxCell>
        <mxCell id="PgAax3qISN8i0Unztyhz-93" value="Use" style="endArrow=open;endSize=12;dashed=1;html=1;rounded=0;exitX=1;exitY=1;exitDx=0;exitDy=0;entryX=0;entryY=0.5;entryDx=0;entryDy=0;" parent="1" source="PgAax3qISN8i0Unztyhz-40" target="PgAax3qISN8i0Unztyhz-54" edge="1">
          <mxGeometry width="160" relative="1" as="geometry">
            <mxPoint x="590" y="480" as="sourcePoint" />
            <mxPoint x="750" y="480" as="targetPoint" />
          </mxGeometry>
        </mxCell>
        <mxCell id="PgAax3qISN8i0Unztyhz-94" value="Use" style="endArrow=open;endSize=12;dashed=1;html=1;rounded=0;exitX=1;exitY=0.5;exitDx=0;exitDy=0;entryX=0;entryY=0.5;entryDx=0;entryDy=0;" parent="1" source="PgAax3qISN8i0Unztyhz-42" target="PgAax3qISN8i0Unztyhz-52" edge="1">
          <mxGeometry width="160" relative="1" as="geometry">
            <mxPoint x="590" y="480" as="sourcePoint" />
            <mxPoint x="750" y="480" as="targetPoint" />
          </mxGeometry>
        </mxCell>
      </root>
    </mxGraphModel>
  </diagram>
</mxfile>
